<svg width="100" height="100" viewBox="0 0 100 100" fill="none" xmlns="http://www.w3.org/2000/svg">
<g clip-path="url(#clip0)">
<path fill-rule="evenodd" clip-rule="evenodd" d="M58.3952 71.7104L57.0659 78.9473L72.8457 78.9473L74.1712 71.7104L64.4599 71.7104L58.3952 71.7104Z" fill="#F96D38"/>
<path fill-rule="evenodd" clip-rule="evenodd" d="M83.0526 29.2766L73.153 29.2766L71.8684 36.5134L81.6242 36.5134L83.0526 29.2766Z" fill="#F96D38"/>
<path fill-rule="evenodd" clip-rule="evenodd" d="M51.3533 43.2479L52.4485 36.6713L65.3154 36.6713L66.6319 29.2283L57.0906 29.2283L62.3871 -3.66431e-06L12 49.5413L44.7175 100L49.6168 71.5928L39.6423 71.5928L39.1542 71.6117L39.158 71.5928L39.1239 71.5928L40.4386 64.1478L50.9182 64.1478L50.9163 64.1667L50.9182 64.1667L50.922 64.1422L69.6642 64.1422L70.8313 57.4373L52.0891 57.4373L53.5117 50.1019L87.4776 50.1019L88.6447 43.2479L51.3533 43.2479ZM45.4533 57.39L35.893 57.39L37.2077 49.9452L46.7699 49.9452L45.4533 57.39Z" fill="#F96D38"/>
</g>
<defs>
<clipPath id="clip0">
<rect width="100" height="100" fill="white"/>
</clipPath>
</defs>
</svg>
